# xmcd CD database file
#
# Track frame offsets:
#	150
#	56632
#	123375
#	167097
#	228167
#	268382
#
# Disc length: 4239 seconds
#
# Revision: 0
# Processed by: cddbd v1.5.2PL0 Copyright (c) Steve Scherf et al.
# Submitted via: CDex 1.51
#
DISCID=50108d06
DTITLE=Seamus Blake and Daniel Thouin Trio - Live Au Cabaret
DYEAR=1999
DGENRE=Jazz
TTITLE0=Happen Stance
TTITLE1=Perk
TTITLE2=Extranjero
TTITLE3=Vanguard Blues
TTITLE4=Cloud
TTITLE5=The Call
EXTD=YEAR: 1999
EXTT0=
EXTT1=
EXTT2=
EXTT3=
EXTT4=
EXTT5=
PLAYORDER=
